<?xml version="1.0" encoding="utf-8"?>
<!-- Generator: Adobe Illustrator 22.0.1, SVG Export Plug-In . SVG Version: 6.00 Build 0)  -->
<svg version="1.1" baseProfile="tiny" id="Layer_1" xmlns="http://www.w3.org/2000/svg" xmlns:xlink="http://www.w3.org/1999/xlink"
	 x="0px" y="0px" viewBox="0 0 16 16" xml:space="preserve">
<path d="M9.9,2C9.7,1.1,8.9,0.5,8,0.5C7.1,0.5,6.3,1.1,6.1,2H2.5v1h11V2C13.5,2,9.9,2,9.9,2z M8,1.5c0.4,0,0.7,0.2,0.9,0.5H7.1
	C7.3,1.7,7.6,1.5,8,1.5z M12,4h1v10.5c0,0.8-0.7,1.5-1.5,1.5h-7C3.7,16,3,15.3,3,14.5V4h1v10.5C4,14.8,4.2,15,4.5,15h7
	c0.3,0,0.5-0.2,0.5-0.5C12,14.5,12,4,12,4z M7,5v8H6V5H7z M10,5v8H9V5H10z"/>
</svg>
