<?xml version="1.0" encoding="utf-8"?>
<!-- Generator: Adobe Illustrator 22.0.1, SVG Export Plug-In . SVG Version: 6.00 Build 0)  -->
<svg version="1.1" baseProfile="tiny" id="Layer_3" xmlns="http://www.w3.org/2000/svg" xmlns:xlink="http://www.w3.org/1999/xlink"
	 x="0px" y="0px" viewBox="0 0 16 16" xml:space="preserve">
<path d="M15.8,10l-1.7-2.9c0,0,0-0.4,0-0.4c0-3.6-2.9-6.6-6.5-6.6S1.2,3,1.2,6.6c0,1.8,0.8,3.5,2,4.6V14c0,0.6,0.4,1,1,1l6,0.9
	c0.6,0,1-0.4,1-1v-1.6l2,0.6c0.6,0,1-0.5,1-1V11h1.2C16,11,16.2,10.6,15.8,10z M13.2,10v2.9l-3-0.9v2.9L4.3,14H4.2v-3.2l-0.3-0.3
	C2.8,9.4,2.2,8,2.2,6.6c0-3,2.5-5.4,5.5-5.4c3,0,5.5,2.5,5.5,5.6v0.7l1.5,2.6H13.2z"/>
<g>
	<path d="M6.3,4.5C6.8,4,7.5,3.8,8.2,3.8S9.7,4,10.1,4.5c0.5,0.4,0.7,1.1,0.7,1.9c0,0.8-0.2,1.4-0.7,1.8C9.7,8.6,8.9,8.8,8,8.8v1.6
		H7V8h0.5c0.8,0,1.4-0.1,1.8-0.3S9.8,7,9.8,6.3c0-0.5-0.1-0.9-0.4-1.1S8.7,4.8,8.2,4.8S7.4,4.9,7.1,5.1C6.8,5.4,6.6,5.8,6.6,6.3h-1
		C5.6,5.5,5.9,4.9,6.3,4.5z M7.5,12.8c-0.2,0-0.4-0.1-0.5-0.2c-0.1-0.1-0.2-0.3-0.2-0.5c0-0.2,0.1-0.4,0.2-0.5
		c0.1-0.1,0.3-0.2,0.5-0.2c0.2,0,0.4,0.1,0.5,0.2c0.1,0.1,0.2,0.3,0.2,0.5c0,0.2-0.1,0.4-0.2,0.5C7.9,12.8,7.7,12.8,7.5,12.8z"/>
</g>
</svg>
