<?xml version="1.0" encoding="utf-8"?>
<!-- Generator: Adobe Illustrator 22.0.1, SVG Export Plug-In . SVG Version: 6.00 Build 0)  -->
<svg version="1.1" baseProfile="tiny" xmlns="http://www.w3.org/2000/svg" xmlns:xlink="http://www.w3.org/1999/xlink" x="0px"
	 y="0px" viewBox="0 0 16 16" xml:space="preserve">
<g id="Layer_1">
	<path d="M12,11c-0.6,0-1.1,0.3-1.5,0.6l-4.7-3C6,8.5,6,8.2,6,8c0-0.2,0-0.4-0.1-0.5l4.6-3.1C10.9,4.8,11.4,5,12,5c1.1,0,2-0.9,2-2
		c0-1.1-0.9-2-2-2s-2,0.9-2,2c0,0.2,0,0.4,0.1,0.5L5.4,6.6C5.1,6.2,4.6,6,4,6C2.9,6,2,6.9,2,8c0,1.1,0.9,2,2,2
		c0.5,0,0.9-0.2,1.3-0.5l4.8,3c0,0.2-0.1,0.3-0.1,0.5c0,1.1,0.9,2,2,2s2-0.9,2-2C14,11.9,13.1,11,12,11z M12,2c0.6,0,1,0.4,1,1
		s-0.4,1-1,1s-1-0.4-1-1S11.4,2,12,2z M4,9C3.4,9,3,8.6,3,8s0.4-1,1-1s1,0.4,1,1S4.6,9,4,9z M12,14c-0.6,0-1-0.4-1-1s0.4-1,1-1
		s1,0.4,1,1S12.6,14,12,14z"/>
</g>
<g id="Layer_2">
</g>
</svg>
