<?xml version="1.0" encoding="utf-8"?>
<!-- Generator: Adobe Illustrator 22.1.0, SVG Export Plug-In . SVG Version: 6.00 Build 0)  -->
<svg version="1.1" baseProfile="tiny" id="Layer_5" xmlns="http://www.w3.org/2000/svg" xmlns:xlink="http://www.w3.org/1999/xlink"
	 x="0px" y="0px" viewBox="0 0 16 16" xml:space="preserve">
<path d="M5,10.8L3.2,9L5,7.2C5.2,7,5.2,6.7,5,6.5c-0.2-0.2-0.5-0.2-0.7,0L2.1,8.6C2,8.8,2,9.2,2.1,9.4l2.1,2.1
	c0.2,0.2,0.5,0.2,0.7,0C5.2,11.3,5.2,11,5,10.8z"/>
<path d="M11,10.8L12.8,9L11,7.2c-0.2-0.2-0.2-0.5,0-0.7c0.2-0.2,0.5-0.2,0.7,0l2.1,2.1c0.2,0.2,0.2,0.5,0,0.7l-2.1,2.1
	c-0.2,0.2-0.5,0.2-0.7,0C10.8,11.3,10.8,11,11,10.8z"/>
<path d="M7,12.9L7,12.9c0.3,0.1,0.5-0.1,0.6-0.4l1.8-6.8C9.5,5.5,9.3,5.2,9,5.1h0C8.8,5.1,8.5,5.2,8.4,5.5l-1.8,6.8
	C6.5,12.5,6.7,12.8,7,12.9z"/>
<path d="M14,1H2C0.9,1,0,1.9,0,3v10c0,1.1,0.9,2,2,2h12c1.1,0,2-0.9,2-2V3C16,1.9,15.1,1,14,1z M13.5,2C13.8,2,14,2.2,14,2.5
	C14,2.8,13.8,3,13.5,3S13,2.8,13,2.5C13,2.2,13.2,2,13.5,2z M11.5,2C11.8,2,12,2.2,12,2.5C12,2.8,11.8,3,11.5,3S11,2.8,11,2.5
	C11,2.2,11.2,2,11.5,2z M9.5,2C9.8,2,10,2.2,10,2.5C10,2.8,9.8,3,9.5,3S9,2.8,9,2.5C9,2.2,9.2,2,9.5,2z M15,13c0,0.5-0.5,1-1,1H2
	c-0.5,0-1-0.5-1-1V5c0-0.5,0.5-1,1-1h12c0.5,0,1,0.5,1,1V13z"/>
</svg>
