<?xml version="1.0" encoding="utf-8"?>
<!-- Generator: Adobe Illustrator 22.0.1, SVG Export Plug-In . SVG Version: 6.00 Build 0)  -->
<svg version="1.1" baseProfile="tiny" id="Layer_3" xmlns="http://www.w3.org/2000/svg" xmlns:xlink="http://www.w3.org/1999/xlink"
	 x="0px" y="0px" viewBox="0 0 16 16" xml:space="preserve">
<polygon points="2.5,2.4 3.9,3.8 4.6,3.1 3.2,1.7 2.5,1 1.8,1.7 0.4,3.1 1.1,3.8 "/>
<rect x="7" y="2" fill="#010101" width="9" height="1"/>
<rect x="7" y="12" fill="#010101" width="9" height="1"/>
<polyline fill="#010101" points="16,7 7,7 7,8 16,8 "/>
<polygon points="2.5,7.6 3.9,6.2 4.6,6.9 3.2,8.3 2.5,9 1.8,8.3 0.4,6.9 1.1,6.2 "/>
<polygon points="2.5,12.4 3.9,13.8 4.6,13.1 3.2,11.7 2.5,11 1.8,11.7 0.4,13.1 1.1,13.8 "/>
</svg>
