<?xml version="1.0" encoding="utf-8"?>
<!-- Generator: Adobe Illustrator 22.0.1, SVG Export Plug-In . SVG Version: 6.00 Build 0)  -->
<svg version="1.1" baseProfile="tiny" id="Layer_1" xmlns="http://www.w3.org/2000/svg" xmlns:xlink="http://www.w3.org/1999/xlink"
	 x="0px" y="0px" viewBox="0 0 16 16" xml:space="preserve">
<polygon fill="#231F20" points="5.6,4.9 4.2,3.5 5.6,2.1 4.9,1.4 3.5,2.8 2.1,1.4 1.4,2.1 2.8,3.5 1.4,4.9 2.1,5.6 3.5,4.2 4.9,5.6 
	"/>
<path fill="#231F20" d="M6,0H1C0.5,0,0,0.5,0,1v5c0,0.5,0.5,1,1,1h5c0.5,0,1-0.5,1-1V1C7,0.5,6.5,0,6,0z M6,6H1V1h5V6z"/>
<path fill="#231F20" d="M15,0h-5C9.5,0,9,0.5,9,1v5c0,0.5,0.5,1,1,1h5c0.5,0,1-0.5,1-1V1C16,0.5,15.5,0,15,0z M15,6h-5V1h5V6z"/>
<path fill="#231F20" d="M15,9h-5c-0.5,0-1,0.5-1,1v5c0,0.5,0.5,1,1,1h5c0.5,0,1-0.5,1-1v-3.5v-1.4V10C16,9.5,15.5,9,15,9z
	 M11.8,14.3l0.7,0.7l0.7-0.7l1.8-1.8V15h-2.5H10v-5h5v1.1l-2.5,2.5l-1.4-1.4l-0.7,0.7L11.8,14.3z"/>
<path fill="#231F20" d="M6,9H1c-0.5,0-1,0.5-1,1v5c0,0.5,0.5,1,1,1h5c0.5,0,1-0.5,1-1v-5C7,9.5,6.5,9,6,9z M6,15H1v-5h5V15z"/>
</svg>
