<?xml version="1.0" encoding="utf-8"?>
<!-- Generator: Adobe Illustrator 22.0.1, SVG Export Plug-In . SVG Version: 6.00 Build 0)  -->
<svg version="1.1" baseProfile="tiny" id="Layer_2" xmlns="http://www.w3.org/2000/svg" xmlns:xlink="http://www.w3.org/1999/xlink"
	 x="0px" y="0px" viewBox="0 0 16 16" xml:space="preserve">
<path d="M14.5,3h-2.3l-0.4-1.1C11.6,1.4,11,1,10.5,1h-5C5,1,4.4,1.4,4.2,1.9L3.8,3H1.5C0.7,3,0,3.7,0,4.5v8C0,13.3,0.7,14,1.5,14h13
	c0.8,0,1.5-0.7,1.5-1.5v-8C16,3.7,15.3,3,14.5,3z M15,12.5c0,0.3-0.2,0.5-0.5,0.5h-13C1.2,13,1,12.8,1,12.5v-8C1,4.2,1.2,4,1.5,4
	h3.1l0.6-1.7C5.2,2.2,5.4,2,5.5,2h5c0.1,0,0.3,0.2,0.4,0.3L11.4,4h3.1C14.8,4,15,4.2,15,4.5V12.5z"/>
<path d="M8,4C5.8,4,4,5.8,4,8s1.8,4,4,4s4-1.8,4-4S10.2,4,8,4z M8,10.9c-1.6,0-2.9-1.3-2.9-2.9c0-1.6,1.3-2.9,2.9-2.9
	s2.9,1.3,2.9,2.9C10.9,9.6,9.6,10.9,8,10.9z"/>
</svg>
