<?xml version="1.0" encoding="utf-8"?>
<!-- Generator: Adobe Illustrator 22.0.1, SVG Export Plug-In . SVG Version: 6.00 Build 0)  -->
<svg version="1.1" baseProfile="tiny" id="Layer_3" xmlns="http://www.w3.org/2000/svg" xmlns:xlink="http://www.w3.org/1999/xlink"
	 x="0px" y="0px" viewBox="0 0 16 16" xml:space="preserve">
<polygon points="2.5,2.4 3.9,3.8 4.6,3.1 3.2,1.7 2.5,1 1.8,1.7 0.4,3.1 1.1,3.8 "/>
<polygon points="2.5,7.6 3.9,6.2 4.6,6.9 3.2,8.3 2.5,9 1.8,8.3 0.4,6.9 1.1,6.2 "/>
<rect x="7" y="2" fill="#010101" width="9" height="1"/>
<rect x="7" y="7" fill="#010101" width="9" height="1"/>
<path fill="#010101" d="M13.6,10H9.4C8.1,10,7,11.1,7,12.4v0.3C7,13.9,8.1,15,9.4,15h4.3c1.3,0,2.4-1.1,2.4-2.4v-0.3
	C16,11.1,14.9,10,13.6,10z M13,13h-1v1h-1v-1h-1v-1h1v-1h1v1h1V13z"/>
</svg>
