<?xml version="1.0" encoding="utf-8"?>
<!-- Generator: Adobe Illustrator 22.1.0, SVG Export Plug-In . SVG Version: 6.00 Build 0)  -->
<svg version="1.1" baseProfile="tiny" id="Layer_3" xmlns="http://www.w3.org/2000/svg" xmlns:xlink="http://www.w3.org/1999/xlink"
	 x="0px" y="0px" viewBox="0 0 16 16" xml:space="preserve">
<path fill="#010101" d="M13,5.9L12,6.9l-0.7-0.7l0.9-0.9c1-1,1-2.6,0-3.5s-2.6-1-3.5,0l-3,3c-1,1-1,2.6,0,3.5s2.6,1,3.5,0L10,8.9
	c-0.7,0.7-1.6,1-2.5,1S5.7,9.6,5,8.9C3.7,7.6,3.7,5.3,5,4l3-3c1.4-1.4,3.6-1.4,4.9,0C14.3,2.4,14.3,4.6,13,5.9z M6,7L5.9,7.2
	l0.7,0.7l0.1-0.1c1-1,2.6-1,3.5,0s1,2.6,0,3.5l-3,3c-1,1-2.6,1-3.5,0s-1-2.6,0-3.5l1.1-1.1L4.1,9L3,10.1c-1.4,1.4-1.4,3.6,0,4.9
	c0.7,0.7,1.6,1,2.5,1s1.8-0.3,2.5-1l3-3c1.4-1.4,1.4-3.6,0-4.9C9.6,5.7,7.4,5.7,6,7z"/>
</svg>
