<?xml version="1.0" encoding="utf-8"?>
<!-- Generator: Adobe Illustrator 22.0.1, SVG Export Plug-In . SVG Version: 6.00 Build 0)  -->
<svg version="1.1" baseProfile="tiny" id="Layer_3" xmlns="http://www.w3.org/2000/svg" xmlns:xlink="http://www.w3.org/1999/xlink"
	 x="0px" y="0px" viewBox="0 0 16 16" xml:space="preserve">
<rect x="5" y="2" fill="#010101" width="11" height="1"/>
<rect x="5" y="7" fill="#010101" width="11" height="1"/>
<path fill="#010101" d="M13.6,10H7.4C6.1,10,5,11.1,5,12.4v0.3C5,13.9,6.1,15,7.4,15h6.3c1.3,0,2.4-1.1,2.4-2.4v-0.3
	C16,11.1,14.9,10,13.6,10z M12,13h-1v1h-1v-1H9v-1h1v-1h1v1h1V13z"/>
<g>
	<path d="M2,4V1H1V0h2v4H2z"/>
</g>
<g>
	<path d="M3.6,6.6c0,0.5-0.3,0.9-0.8,1.3L2.2,8.5h1.4v1H0.5V8.7l1.4-1.4c0.2-0.2,0.3-0.4,0.3-0.5c0-0.1-0.1-0.2-0.3-0.2
		c-0.3,0-0.7,0.2-1.1,0.5L0.4,6.1c0.6-0.4,1.1-0.6,1.8-0.6C2.9,5.5,3.6,5.9,3.6,6.6z"/>
</g>
</svg>
