<?xml version="1.0" encoding="utf-8"?>
<!-- Generator: Adobe Illustrator 22.0.1, SVG Export Plug-In . SVG Version: 6.00 Build 0)  -->
<svg version="1.1" baseProfile="tiny" id="Layer_3" xmlns="http://www.w3.org/2000/svg" xmlns:xlink="http://www.w3.org/1999/xlink"
	 x="0px" y="0px" viewBox="0 0 16 16" xml:space="preserve">
<path fill="#010101" d="M15,8l-0.7-0.7L13,6H9.8H2V5h3.3H8l1.3-1.3L10,3L9.3,2.3L8,1H6.5H1.6H1v1v2v1v1v1v2v1v1v1v2v1h0.6h7.2H11
	l1.3-1.3L13,13l-0.7-0.7L11,11H9.8H2v-1h9.8H13l1.3-1.3L15,8z M2,2h5.6l1,1l-1,1H2V2z M10.6,12l1,1l-1,1H2v-2H10.6z M12.6,9H2V7
	h10.6l1,1L12.6,9z"/>
</svg>
