<?xml version="1.0" encoding="utf-8"?>
<!-- Generator: Adobe Illustrator 22.0.1, SVG Export Plug-In . SVG Version: 6.00 Build 0)  -->
<svg version="1.1" baseProfile="tiny" id="Layer_3" xmlns="http://www.w3.org/2000/svg" xmlns:xlink="http://www.w3.org/1999/xlink"
	 x="0px" y="0px" viewBox="0 0 16 16" xml:space="preserve">
<g>
	<path d="M2,4V1H1V0h2v4H2z"/>
</g>
<rect x="5" y="2" fill="#010101" width="11" height="1"/>
<rect x="5" y="12" fill="#010101" width="11" height="1"/>
<rect x="5" y="7" fill="#010101" width="11" height="1"/>
<g>
	<path d="M2.7,12.6c0.5,0.1,0.9,0.5,0.9,1.1C3.6,14.5,3,15,2,15c-0.6,0-1.2-0.2-1.6-0.5l0.5-1c0.3,0.4,0.6,0.6,1,0.6
		c0.3,0,0.4-0.1,0.4-0.3s-0.1-0.3-0.4-0.3H1.2v-0.7l0.8-0.7H0.6V11h2.8v0.7l-0.9,0.8L2.7,12.6z"/>
</g>
<g>
	<path d="M3.6,6.6c0,0.5-0.3,0.9-0.8,1.3L2.2,8.5h1.4v1H0.5V8.7l1.4-1.4c0.2-0.2,0.3-0.4,0.3-0.5c0-0.1-0.1-0.2-0.3-0.2
		c-0.3,0-0.7,0.2-1.1,0.5L0.4,6.1c0.6-0.4,1.1-0.6,1.8-0.6C2.9,5.5,3.6,5.9,3.6,6.6z"/>
</g>
</svg>
