<?xml version="1.0" encoding="utf-8"?>
<!-- Generator: Adobe Illustrator 22.0.1, SVG Export Plug-In . SVG Version: 6.00 Build 0)  -->
<svg version="1.1" baseProfile="tiny" xmlns="http://www.w3.org/2000/svg" xmlns:xlink="http://www.w3.org/1999/xlink" x="0px"
	 y="0px" viewBox="0 0 16 16" xml:space="preserve">
<g id="Layer_7">
	<path d="M14,0H2C0.9,0,0,0.9,0,2v12c0,1.1,0.9,2,2,2h12c1.1,0,2-0.9,2-2V2C16,0.9,15.1,0,14,0z M15,14c0,0.6-0.4,1-1,1H2
		c-0.6,0-1-0.4-1-1V2c0-0.6,0.4-1,1-1h12c0.6,0,1,0.4,1,1V14z"/>
</g>
<g id="Layer_4">
	<path d="M9.7,5.2L9.3,4.9C8.9,4.6,8.5,4.5,8,4.5S7.1,4.6,6.7,4.9L6.3,5.2L4,4v0.5V8c0,2.2,1.8,4,4,4c2.2,0,4-1.8,4-4V4.5V4L9.7,5.2
		z M11,8c0,1.7-1.3,3-3,3S5,9.7,5,8V5.7l0.8,0.4c0.1,0.1,0.3,0.1,0.5,0.1c0.2,0,0.4-0.1,0.6-0.2l0.4-0.3C7.5,5.6,7.7,5.5,8,5.5
		s0.5,0.1,0.8,0.2L9.2,6c0.2,0.1,0.4,0.2,0.6,0.2c0.2,0,0.3,0,0.5-0.1L11,5.7V8z"/>
</g>
<g id="Layer_5">
	<rect x="3" y="2" width="10" height="1"/>
	<rect x="3" y="13" width="10" height="1"/>
</g>
</svg>
