<?xml version="1.0" encoding="utf-8"?>
<!-- Generator: Adobe Illustrator 22.0.1, SVG Export Plug-In . SVG Version: 6.00 Build 0)  -->
<svg version="1.1" baseProfile="tiny" id="Layer_3" xmlns="http://www.w3.org/2000/svg" xmlns:xlink="http://www.w3.org/1999/xlink"
	 x="0px" y="0px" viewBox="0 0 16 16" xml:space="preserve">
<path fill="#010101" d="M0.8,8.2C0.7,8.2,0.7,8.2,0.8,8.2L0.6,9.7l0.2,1.4c0,0,0,0.1,0.1,0.1c0,0,0.1,0,0.1-0.1L1,9.7L0.8,8.2
	C0.8,8.2,0.8,8.2,0.8,8.2 M0.2,8.7C0.1,8.7,0.1,8.7,0.2,8.7L0,9.7l0.1,0.9c0,0,0,0.1,0.1,0.1s0.1,0,0.1-0.1l0.1-0.9L0.2,8.7
	C0.2,8.7,0.2,8.7,0.2,8.7 M1.4,7.9C1.4,7.9,1.3,7.9,1.4,7.9L1.2,9.6l0.1,1.6c0,0,0,0.1,0.1,0.1c0,0,0.1,0,0.1-0.1l0.2-1.6L1.4,7.9
	C1.5,7.9,1.4,7.9,1.4,7.9 M2,7.8c0,0-0.1,0-0.1,0.1L1.8,9.6l0.1,1.7C2,11.4,2,11.4,2,11.4c0,0,0.1,0,0.1-0.1l0.2-1.7L2.1,7.9
	C2.1,7.9,2.1,7.8,2,7.8C2.1,7.8,2,7.8,2,7.8z M2.8,8c0-0.1,0-0.1-0.1-0.1C2.6,7.9,2.6,8,2.6,8L2.4,9.7l0.1,1.7c0,0.1,0,0.1,0.1,0.1
	c0,0,0.1,0,0.1-0.1l0.2-1.7L2.8,8C2.8,8,2.8,8,2.8,8z M3.3,6.9C3.3,6.9,3.2,7,3.2,7L3.1,9.7l0.1,1.7c0,0.1,0.1,0.1,0.1,0.1
	c0.1,0,0.1-0.1,0.1-0.1l0.1-1.7L3.5,7C3.4,6.9,3.4,6.9,3.3,6.9 M4,6.3c-0.1,0-0.1,0.1-0.1,0.1L3.7,9.6l0.1,1.7
	c0,0.1,0.1,0.1,0.1,0.1c0.1,0,0.1-0.1,0.1-0.1l0.1-1.7L4.1,6.4C4.1,6.3,4,6.3,4,6.3 M4.6,6C4.5,6,4.5,6,4.5,6.1L4.4,9.6l0.1,1.7
	c0,0.1,0.1,0.1,0.1,0.1c0.1,0,0.2-0.1,0.2-0.1l0.1-1.7L4.8,6.1C4.8,6,4.7,6,4.6,6 M5.4,6c0-0.1-0.1-0.2-0.2-0.2
	C5.2,5.8,5.1,5.9,5.1,6L5,9.6l0.1,1.7c0,0.1,0.1,0.2,0.2,0.2s0.2-0.1,0.2-0.2l0.1-1.7L5.4,6C5.5,6,5.4,6,5.4,6z M5.9,5.9
	C5.9,5.9,5.8,6,5.8,6.1L5.7,9.6l0.1,1.6c0,0.1,0.1,0.2,0.2,0.2s0.2-0.1,0.2-0.2l0.1-1.6L6.1,6.1C6.1,6,6,5.9,5.9,5.9 M6.6,6
	C6.5,6,6.4,6.1,6.4,6.2L6.3,9.6l0.1,1.6c0,0.1,0.1,0.2,0.2,0.2c0.1,0,0.2-0.1,0.2-0.2l0.1-1.6L6.8,6.2C6.8,6.1,6.7,6,6.6,6 M7.4,5.4
	c0,0-0.1,0-0.1,0s-0.1,0-0.1,0c-0.1,0-0.1,0.1-0.1,0.2v0L7,9.6l0.1,1.6v0c0,0,0,0.1,0,0.1c0,0,0.1,0.1,0.2,0.1c0.1,0,0.1,0,0.1-0.1
	c0,0,0.1-0.1,0.1-0.1l0-0.2l0.1-1.5L7.5,5.6C7.5,5.5,7.4,5.5,7.4,5.4C7.4,5.4,7.4,5.4,7.4,5.4z M8.1,5C8,5,8,5,8.1,5
	C7.9,5,7.9,5,7.8,5c0,0-0.1,0.1-0.1,0.2v0L7.7,9.6l0.1,0.8l0,0.8c0,0.1,0.1,0.2,0.2,0.2c0.1,0,0.2-0.1,0.2-0.2l0.1-1.6L8.2,5.2
	C8.2,5.1,8.1,5,8.1,5 M14,7.5c-0.3,0-0.5,0.1-0.8,0.2c-0.2-1.8-1.6-3.2-3.5-3.2c-0.4,0-0.9,0.1-1.3,0.2C8.4,4.8,8.4,4.9,8.4,5v6.2
	c0,0.1,0.1,0.2,0.2,0.2H14c1.1,0,2-0.9,2-1.9S15.1,7.6,14,7.5"/>
</svg>
