<?xml version="1.0" encoding="utf-8"?>
<!-- Generator: Adobe Illustrator 22.0.1, SVG Export Plug-In . SVG Version: 6.00 Build 0)  -->
<svg version="1.1" baseProfile="tiny" id="Layer_3" xmlns="http://www.w3.org/2000/svg" xmlns:xlink="http://www.w3.org/1999/xlink"
	 x="0px" y="0px" viewBox="0 0 16 16" xml:space="preserve">
<g>
	<path fill="#020202" d="M9.4,7.5c-1.2,0-2.1,1-2.1,2.1c0,1.2,0.9,2.1,2.2,2.1c1.1,0,1.9-0.9,1.9-2C11.4,8.4,10.5,7.5,9.4,7.5z"/>
	<path fill="#020202" d="M9.5,11.7L9.5,11.7L9.5,11.7z"/>
	<path fill="#020202" d="M0,0v16h16V0H0z M13.8,13.9h-2.4V13c-0.7,0.7-1.5,1-2.5,1S7,13.7,6.3,13c-1-0.8-1.5-2-1.5-3.3
		c0-1.2,0.5-2.3,1.3-3.1C7,5.8,7.9,5.4,9,5.4c1,0,1.8,0.3,2.4,1.1V2.8l2.5-0.5L13.8,13.9L13.8,13.9z"/>
</g>
</svg>
