<?xml version="1.0" encoding="utf-8"?>
<!-- Generator: Adobe Illustrator 22.0.1, SVG Export Plug-In . SVG Version: 6.00 Build 0)  -->
<svg version="1.1" baseProfile="tiny" id="Layer_3" xmlns="http://www.w3.org/2000/svg" xmlns:xlink="http://www.w3.org/1999/xlink"
	 x="0px" y="0px" viewBox="0 0 16 16" xml:space="preserve">
<path fill="#010101" d="M15.7,4.1c-0.2-0.7-0.7-1.2-1.4-1.4C13,2.4,8,2.4,8,2.4s-5,0-6.3,0.3C1.1,2.9,0.5,3.5,0.3,4.1
	C0.1,5.4,0,6.7,0,8c0,1.3,0.1,2.6,0.3,3.9c0.2,0.7,0.7,1.2,1.4,1.4C3,13.6,8,13.6,8,13.6s5,0,6.3-0.3c0.7-0.2,1.2-0.7,1.4-1.4
	C15.9,10.6,16,9.3,16,8C16,6.7,15.9,5.4,15.7,4.1z M6.4,10.4V5.6L10.6,8L6.4,10.4z"/>
</svg>
