<?xml version="1.0" encoding="utf-8"?>
<!-- Generator: Adobe Illustrator 22.0.1, SVG Export Plug-In . SVG Version: 6.00 Build 0)  -->
<svg version="1.1" baseProfile="tiny" id="Layer_3" xmlns="http://www.w3.org/2000/svg" xmlns:xlink="http://www.w3.org/1999/xlink"
	 x="0px" y="0px" viewBox="0 0 16 16" xml:space="preserve">
<path fill="#010101" d="M7.8,12.5h1c0.2,0,0.3-0.1,0.4-0.2c0.1-0.1,0.1-0.3,0.1-0.4c0,0,0-1.3,0.6-1.5s1.3,1.2,2.1,1.8
	c0.3,0.2,0.7,0.4,1.1,0.3h2.1c0,0,1.1-0.1,0.6-0.9c-0.4-0.7-1-1.4-1.6-1.9c-1.3-1.2-1.2-1,0.4-3.2c1-1.3,1.4-2.1,1.2-2.4
	c-0.1-0.3-0.8-0.2-0.8-0.2h-2.4c-0.1,0-0.2,0-0.3,0.1c-0.1,0.1-0.2,0.2-0.2,0.3c-0.2,0.6-0.5,1.3-0.9,1.9C10.2,7.9,9.8,8,9.6,7.9
	c-0.4-0.3-0.3-1-0.3-1.6c0-1.8,0.3-2.5-0.5-2.7C8.4,3.5,8.1,3.5,7.7,3.5c-0.7-0.1-1.3,0-2,0.2C5.4,3.8,5.2,4.1,5.3,4.1
	c0.3,0,0.5,0.2,0.7,0.4c0.2,0.3,0.2,0.7,0.2,1.1c0,0,0.1,2.1-0.3,2.3S5.2,7.7,4.2,6.1C3.9,5.5,3.6,4.9,3.4,4.3
	c0-0.1-0.1-0.2-0.2-0.3C3.1,3.9,2.9,3.9,2.8,3.9H0.5c0,0-0.3,0-0.5,0.1c-0.1,0.1,0,0.4,0,0.4c1,2.3,2.2,4.4,3.8,6.3
	C4.9,11.8,6.3,12.5,7.8,12.5L7.8,12.5z"/>
</svg>
