<?xml version="1.0" encoding="utf-8"?>
<!-- Generator: Adobe Illustrator 22.0.1, SVG Export Plug-In . SVG Version: 6.00 Build 0)  -->
<svg version="1.1" baseProfile="tiny" xmlns="http://www.w3.org/2000/svg" xmlns:xlink="http://www.w3.org/1999/xlink" x="0px"
	 y="0px" viewBox="0 0 16 16" xml:space="preserve">
<g id="Layer_3">
	<path fill="#010101" d="M11.5,4c-0.4,0-0.8,0.1-1.1,0.2C9.6,2.9,8.1,2,6.5,2c-2,0-3.7,1.3-4.3,3.1C1,5.4,0,6.6,0,8c0,1.7,1.3,3,3,3
		h2h1v-1H3c-1.1,0-2-0.9-2-2c0-0.9,0.6-1.7,1.5-1.9L3,5.9l0.2-0.5C3.7,4,5,3,6.5,3c1.2,0,2.4,0.6,3,1.7l0.4,0.7l0.8-0.3
		C11,5,11.2,5,11.5,5C12.9,5,14,6.1,14,7.5S12.9,10,11.5,10H9v1h1h1.5c1.9,0,3.5-1.6,3.5-3.5S13.4,4,11.5,4z"/>
</g>
<g id="Layer_2">
	<polygon fill="#010101" points="9.6,8.6 10.4,7.9 7.5,5 4.6,7.9 5.4,8.6 7,6.9 7,14 8,14 8,6.9 	"/>
</g>
</svg>
