<?xml version="1.0" encoding="utf-8"?>
<!-- Generator: Adobe Illustrator 22.0.1, SVG Export Plug-In . SVG Version: 6.00 Build 0)  -->
<svg version="1.1" baseProfile="tiny" id="Layer_3" xmlns="http://www.w3.org/2000/svg" xmlns:xlink="http://www.w3.org/1999/xlink"
	 x="0px" y="0px" viewBox="0 0 16 16" xml:space="preserve">
<path fill="#010101" d="M15.5,1.9l-1.4-1.4c-0.6-0.6-1.6-0.6-2.1,0L1.9,10.5l-1.7,5.3L5.5,14L15.5,4C16.1,3.4,16.1,2.4,15.5,1.9z
	 M2.1,13.3l0.6-2l1.9,1.9l-2,0.7C2.7,13.9,2.1,13.3,2.1,13.3z M3.4,10.5L9.8,4L12,6.1l-6.5,6.5C5.5,12.6,3.4,10.5,3.4,10.5z
	 M10.6,3.3l0.7-0.7l2.1,2.1l-0.7,0.7C12.7,5.4,10.6,3.3,10.6,3.3z M14.8,3.3L14.1,4L12,1.9l0.7-0.7c0.2-0.2,0.5-0.2,0.7,0l1.4,1.4
	C15,2.8,15,3.1,14.8,3.3z"/>
</svg>
