<?xml version="1.0" encoding="utf-8"?>
<!-- Generator: Adobe Illustrator 22.0.1, SVG Export Plug-In . SVG Version: 6.00 Build 0)  -->
<svg version="1.1" baseProfile="tiny" xmlns="http://www.w3.org/2000/svg" xmlns:xlink="http://www.w3.org/1999/xlink" x="0px"
	 y="0px" viewBox="0 0 16 16" xml:space="preserve">
<g id="Layer_1">
</g>
<g id="Layer_2">
	<path d="M5,0v5.7V6v1v1.8C4.5,8.3,3.8,8,3,8c-1.7,0-3,1.3-3,3s1.3,3,3,3s3-1.3,3-3V7V6V5.2L15,7v0.8V9v1.8c-0.5-0.5-1.2-0.8-2-0.8
		c-1.7,0-3,1.3-3,3s1.3,3,3,3s3-1.3,3-3V9V2.2L5,0z M3,13c-1.1,0-2-0.9-2-2s0.9-2,2-2s2,0.9,2,2S4.1,13,3,13z M13,15
		c-1.1,0-2-0.9-2-2s0.9-2,2-2s2,0.9,2,2S14.1,15,13,15z M6,4.2v-3L15,3v3L6,4.2z"/>
</g>
</svg>
