<?xml version="1.0" encoding="utf-8"?>
<!-- Generator: Adobe Illustrator 22.0.1, SVG Export Plug-In . SVG Version: 6.00 Build 0)  -->
<svg version="1.1" baseProfile="tiny" id="Layer_2" xmlns="http://www.w3.org/2000/svg" xmlns:xlink="http://www.w3.org/1999/xlink"
	 x="0px" y="0px" viewBox="0 0 16 16" xml:space="preserve">
<path d="M0,3v4h4V3H0z M3,6H1V4h2V6z"/>
<path d="M6,3v4h4V3H6z M9,6H7V4h2V6z"/>
<path d="M12,3v4h4V3H12z M15,6h-2V4h2V6z"/>
<path d="M6,9v4h4V9H6z M9,12H7v-2h2V12z"/>
<path d="M12,9v4h4V9H12z M15,12h-2v-2h2V12z"/>
<path d="M0,9v4h4V9H0z M3,12H1v-2h2V12z"/>
</svg>
