<?xml version="1.0" encoding="utf-8"?>
<!-- Generator: Adobe Illustrator 22.0.1, SVG Export Plug-In . SVG Version: 6.00 Build 0)  -->
<svg version="1.1" baseProfile="tiny" id="Layer_3" xmlns="http://www.w3.org/2000/svg" xmlns:xlink="http://www.w3.org/1999/xlink"
	 x="0px" y="0px" viewBox="0 0 16 16" xml:space="preserve">
<path d="M11.4,9.4c0-0.3-0.1-0.5-0.2-0.7s-0.4-0.4-0.6-0.5c0,0.2-0.1,0.4-0.2,0.6c0,0.1-0.1,0.2-0.2,0.3C10.1,9.2,10,9.2,9.9,9.2
	c-0.1,0-0.1,0-0.2,0C9.6,9.1,9.5,9,9.4,8.9c-0.1-0.1-0.1-0.3,0-0.4c0.1-0.3,0.2-0.7,0.2-1c0-0.6-0.1-1.1-0.4-1.6S8.5,5.1,8,4.8
	S7,4.3,6.4,4.3c-0.6,0-1.2,0.2-1.7,0.5C4.2,5.2,3.8,5.6,3.5,6.2C4,6.3,4.5,6.6,4.8,6.9C4.9,7,5,7.2,5,7.3c0,0.1-0.1,0.3-0.2,0.4
	C4.7,7.8,4.6,7.8,4.5,7.8S4.2,7.8,4.1,7.7C3.7,7.3,3.3,7.2,2.8,7.2c-0.5,0-0.9,0.2-1.3,0.5S1.1,8.5,1.1,8.9c0,0.5,0.2,0.9,0.5,1.3
	c0.3,0.3,0.8,0.5,1.3,0.5h7.3c0.4,0,0.7-0.1,0.9-0.4C11.3,10.1,11.4,9.8,11.4,9.4z M12.5,9.4c0,0.7-0.2,1.2-0.7,1.7
	c-0.5,0.5-1,0.7-1.7,0.7H2.8c-0.8,0-1.5-0.3-2-0.8C0.3,10.4,0,9.7,0,8.9c0-0.7,0.2-1.3,0.7-1.9s1-0.8,1.7-0.9C2.7,5.3,3.2,4.6,4,4.1
	s1.6-0.8,2.5-0.8c1.1,0,2,0.4,2.8,1.1s1.3,1.6,1.4,2.7c0.5,0.1,1,0.4,1.3,0.8C12.3,8.3,12.5,8.8,12.5,9.4z M14.2,9.4
	c0,0.8-0.2,1.5-0.7,2.2c-0.1,0.2-0.3,0.2-0.4,0.2c-0.1,0-0.2,0-0.3-0.1c-0.1-0.1-0.2-0.2-0.2-0.3c0-0.1,0-0.3,0.1-0.4
	c0.3-0.5,0.5-1,0.5-1.6S13,8.3,12.7,7.8c-0.1-0.1-0.1-0.3-0.1-0.4c0-0.1,0.1-0.3,0.2-0.3s0.3-0.1,0.4-0.1c0.1,0,0.3,0.1,0.3,0.2
	C14,7.9,14.2,8.6,14.2,9.4z M16,9.4c0,1.1-0.3,2.2-0.9,3.1c-0.1,0.2-0.3,0.2-0.4,0.2c-0.1,0-0.2,0-0.3-0.1c-0.1-0.1-0.2-0.2-0.2-0.3
	c0-0.1,0-0.3,0.1-0.4c0.5-0.8,0.8-1.6,0.8-2.5c0-0.9-0.2-1.7-0.8-2.5c-0.1-0.1-0.1-0.3-0.1-0.4c0-0.1,0.1-0.3,0.2-0.3
	c0.1-0.1,0.3-0.1,0.4-0.1c0.1,0,0.3,0.1,0.3,0.2C15.7,7.2,16,8.3,16,9.4z"/>
</svg>
