<?xml version="1.0" encoding="utf-8"?>
<!-- Generator: Adobe Illustrator 22.0.1, SVG Export Plug-In . SVG Version: 6.00 Build 0)  -->
<svg version="1.1" baseProfile="tiny" id="Layer_3" xmlns="http://www.w3.org/2000/svg" xmlns:xlink="http://www.w3.org/1999/xlink"
	 x="0px" y="0px" viewBox="0 0 16 16" xml:space="preserve">
<polygon fill="#010101" points="11,4 11,3 10,3 10,2 9,2 9,3 9,5 10,5 11,5 12,5 12,4 "/>
<polygon fill="#010101" points="11,6 11,11 11,12 4,12 4,3 8,3 9,2 8,2 3,2 3,3 3,12 3,13 4,13 11,13 12,13 12,11 12,6 12,5 "/>
</svg>
