<?xml version="1.0" encoding="utf-8"?>
<!-- Generator: Adobe Illustrator 22.0.1, SVG Export Plug-In . SVG Version: 6.00 Build 0)  -->
<svg version="1.1" baseProfile="tiny" id="Layer_3" xmlns="http://www.w3.org/2000/svg" xmlns:xlink="http://www.w3.org/1999/xlink"
	 x="0px" y="0px" viewBox="0 0 16 16" xml:space="preserve">
<path d="M13,7V5.5C13,4.7,12.3,4,11.5,4h-1C9.7,4,9,4.7,9,5.5v1v1L12,9v1.5c0,0.3-0.2,0.5-0.5,0.5h-1c-0.3,0-0.5-0.2-0.5-0.5V9H9
	v1.5c0,0.8,0.7,1.5,1.5,1.5h1c0.8,0,1.5-0.7,1.5-1.5v-1v-1L10,7V5.5C10,5.2,10.2,5,10.5,5h1C11.8,5,12,5.2,12,5.5V7H13z"/>
<polygon points="7,4 5.5,10 4,4 3,4 5,12 6,12 8,4 "/>
<path d="M8,0C3.6,0,0,3.6,0,8s3.6,8,8,8s8-3.6,8-8S12.4,0,8,0z M8,15c-3.9,0-7-3.1-7-7c0-3.9,3.1-7,7-7c3.9,0,7,3.1,7,7
	C15,11.9,11.9,15,8,15z"/>
</svg>
