<?xml version="1.0" encoding="utf-8"?>
<!-- Generator: Adobe Illustrator 22.0.1, SVG Export Plug-In . SVG Version: 6.00 Build 0)  -->
<svg version="1.1" baseProfile="tiny" id="Layer_3" xmlns="http://www.w3.org/2000/svg" xmlns:xlink="http://www.w3.org/1999/xlink"
	 x="0px" y="0px" viewBox="0 0 16 16" xml:space="preserve">
<path fill="#010101" d="M7.3,0.1C6.2-0.2,4.9,0.3,4.4,1.3C4,0.3,2.7-0.2,1.6,0.1C0.4,0.4-0.4,1.5,0.2,3.3C0.9,5.6,3.9,7.7,4.4,8
	C5,7.7,8,5.6,8.7,3.3C9.2,1.5,8.5,0.4,7.3,0.1z M7.8,3C7.3,4.5,5.4,6.1,4.4,6.8C3.4,6.1,1.6,4.5,1.1,3C1,2.4,1,1.9,1.1,1.6
	c0.2-0.3,0.5-0.5,0.7-0.5C2,1,2.1,1,2.3,1c0.6,0,1.1,0.3,1.3,0.7C3.7,2.1,4,2.3,4.4,2.3c0.4,0,0.8-0.2,0.9-0.6C5.5,1.3,6.1,1,6.6,1
	C6.8,1,6.9,1,7,1.1c0.2,0.1,0.5,0.2,0.7,0.5C7.9,1.9,7.9,2.4,7.8,3z"/>
<polygon points="16,15.3 12.6,11.9 16,8.5 15.3,7.8 11.9,11.2 8.5,7.8 7.8,8.5 11.2,11.9 7.8,15.3 8.5,16 11.9,12.6 15.3,16 "/>
</svg>
