<?xml version="1.0" encoding="utf-8"?>
<!-- Generator: Adobe Illustrator 22.0.1, SVG Export Plug-In . SVG Version: 6.00 Build 0)  -->
<svg version="1.1" baseProfile="tiny" id="Layer_3" xmlns="http://www.w3.org/2000/svg" xmlns:xlink="http://www.w3.org/1999/xlink"
	 x="0px" y="0px" viewBox="0 0 16 16" xml:space="preserve">
<g>
	<polygon fill-rule="evenodd" points="8,16 8,16 8,16 	"/>
</g>
<path fill-rule="evenodd" d="M11,3H5C3.9,3,3,3.9,3,5v6c0,1.1,0.9,2,2,2h6c1.1,0,2-0.9,2-2V5C13,3.9,12.1,3,11,3z M12,11
	c0,0.6-0.4,1-1,1H5c-0.6,0-1-0.4-1-1V5c0-0.6,0.4-1,1-1h6c0.6,0,1,0.4,1,1V11z"/>
</svg>
