<?xml version="1.0" encoding="utf-8"?>
<!-- Generator: Adobe Illustrator 22.0.1, SVG Export Plug-In . SVG Version: 6.00 Build 0)  -->
<svg version="1.1" baseProfile="tiny" xmlns="http://www.w3.org/2000/svg" xmlns:xlink="http://www.w3.org/1999/xlink" x="0px"
	 y="0px" viewBox="0 0 16 16" xml:space="preserve">
<g id="Layer_3">
	<g>
		<polygon fill-rule="evenodd" points="8,16 8,16 8,16 		"/>
	</g>
</g>
<g id="Layer_2">
	<path d="M11,3H5C3.9,3,3,3.9,3,5v6c0,1.1,0.9,2,2,2h6c1.1,0,2-0.9,2-2V5C13,3.9,12.1,3,11,3z M11,12H5c-0.6,0-1-0.4-1-1V5
		c0-0.6,0.4-1,1-1h6c0.6,0,1,0.4,1,1v0.4L8.1,9.2c-0.1,0.1-0.2,0.1-0.3,0L6.5,7.9C6.3,7.7,6,7.7,5.8,7.9c-0.2,0.2-0.2,0.5,0,0.7
		l1.7,1.7c0.3,0.3,0.7,0.3,1,0L12,6.8V11C12,11.6,11.6,12,11,12z"/>
</g>
</svg>
